HIERARCHY
ROOT Hips
{
  OFFSET 0.0 0.0 0.0
  CHANNELS 6 Xposition Yposition Zposition Zrotation Yrotation Xrotation
  JOINT LHipJoint
  {
    OFFSET 0.0 0.0 0.0
    CHANNELS 3 Zrotation Yrotation Xrotation
    JOINT LeftUpLeg
    {
      OFFSET 1.363059998 -1.794630051 0.839290023
      CHANNELS 3 Zrotation Yrotation Xrotation
      JOINT LeftLeg
      {
        OFFSET 2.448110104 -6.726130009 0.0
        CHANNELS 3 Zrotation Yrotation Xrotation
        JOINT LeftFoot
        {
          OFFSET 2.562200069 -7.039589882 0.0
          CHANNELS 3 Zrotation Yrotation Xrotation
          JOINT LeftToeBase
          {
            OFFSET 0.157639995 -0.433109999 2.322550058
            CHANNELS 3 Zrotation Yrotation Xrotation
            End Site
            {
              OFFSET 0.0 -0.0 1.189659953
            }
          }
        }
      }
    }
  }
  JOINT RHipJoint
  {
    OFFSET 0.0 0.0 0.0
    CHANNELS 3 Zrotation Yrotation Xrotation
    JOINT RightUpLeg
    {
      OFFSET -1.305520058 -1.794630051 0.839290023
      CHANNELS 3 Zrotation Yrotation Xrotation
      JOINT RightLeg
      {
        OFFSET -2.54253006 -6.985549927 0.0
        CHANNELS 3 Zrotation Yrotation Xrotation
        JOINT RightFoot
        {
          OFFSET -2.568259954 -7.056230068 0.0
          CHANNELS 3 Zrotation Yrotation Xrotation
          JOINT RightToeBase
          {
            OFFSET -0.164729998 -0.452589989 2.363149881
            CHANNELS 3 Zrotation Yrotation Xrotation
            End Site
            {
              OFFSET -0.0 -0.0 1.21081996
            }
          }
        }
      }
    }
  }
  JOINT LowerBack
  {
    OFFSET 0.0 0.0 0.0
    CHANNELS 3 Zrotation Yrotation Xrotation
    JOINT Spine
    {
      OFFSET 0.028270001 2.035589933 -0.193379998
      CHANNELS 3 Zrotation Yrotation Xrotation
      JOINT Spine1
      {
        OFFSET 0.05672 2.04885006 -0.042750001
        CHANNELS 3 Zrotation Yrotation Xrotation
        JOINT Neck
        {
          OFFSET 0.0 0.0 0.0
          CHANNELS 3 Zrotation Yrotation Xrotation
          JOINT Neck1
          {
            OFFSET -0.054170001 1.74624002 0.172020003
            CHANNELS 3 Zrotation Yrotation Xrotation
            JOINT Head
            {
              OFFSET 0.10407 1.761360049 -0.123970002
              CHANNELS 3 Zrotation Yrotation Xrotation
              End Site
              {
                OFFSET 0.0372 1.770439982 -0.062410001
              }
            }
          }
        }
        JOINT LeftShoulder
        {
          OFFSET 0.0 0.0 0.0
          CHANNELS 3 Zrotation Yrotation Xrotation
          JOINT LeftArm
          {
            OFFSET 3.362410069 1.200889945 -0.311210006
            CHANNELS 3 Zrotation Yrotation Xrotation
            JOINT LeftForeArm
            {
              OFFSET 4.982999802 -0.0 -0.0
              CHANNELS 3 Zrotation Yrotation Xrotation
              JOINT LeftHand
              {
                OFFSET 3.483560085 -0.0 -0.0
                CHANNELS 3 Zrotation Yrotation Xrotation
                JOINT LeftFingerBase
                {
                  OFFSET 0.0 0.0 0.0
                  CHANNELS 3 Zrotation Yrotation Xrotation
                  JOINT LeftHandIndex1
                  {
                    OFFSET 0.715260029 -0.0 -0.0
                    CHANNELS 3 Zrotation Yrotation Xrotation
                    End Site
                    {
                      OFFSET 0.576659977 -0.0 -0.0
                    }
                  }
                }
                JOINT LThumb
                {
                  OFFSET 0.0 0.0 0.0
                  CHANNELS 3 Zrotation Yrotation Xrotation
                  End Site
                  {
                    OFFSET 0.585470021 -0.0 0.585470021
                  }
                }
              }
            }
          }
        }
        JOINT RightShoulder
        {
          OFFSET 0.0 0.0 0.0
          CHANNELS 3 Zrotation Yrotation Xrotation
          JOINT RightArm
          {
            OFFSET -3.136600018 1.374050021 -0.404650003
            CHANNELS 3 Zrotation Yrotation Xrotation
            JOINT RightForeArm
            {
              OFFSET -5.241899967 -0.0 -0.0
              CHANNELS 3 Zrotation Yrotation Xrotation
              JOINT RightHand
              {
                OFFSET -3.444169998 -0.0 -0.0
                CHANNELS 3 Zrotation Yrotation Xrotation
                JOINT RightFingerBase
                {
                  OFFSET 0.0 0.0 0.0
                  CHANNELS 3 Zrotation Yrotation Xrotation
                  JOINT RightHandIndex1
                  {
                    OFFSET -0.622529984 -0.0 -0.0
                    CHANNELS 3 Zrotation Yrotation Xrotation
                    End Site
                    {
                      OFFSET -0.501900017 -0.0 -0.0
                    }
                  }
                }
                JOINT RThumb
                {
                  OFFSET 0.0 0.0 0.0
                  CHANNELS 3 Zrotation Yrotation Xrotation
                  End Site
                  {
                    OFFSET -0.509559989 -0.0 0.509559989
                  }
                }
              }
            }
          }
        }
      }
    }
  }
}
MOTION
Frames: 7
Frame Time: 0.0083333
0.0 17.321399689 0.0 168.091003418 -70.272979736 -164.753005981 0.0 -0.0 0.0 -23.057104111 8.93170166 -5.953300476 1.606399894 7.993100643 22.693004608 0.227200076 -18.885196686 -15.199298859 0.339399934 3.743899584 10.357297897 0.0 -0.0 0.0 19.351303101 1.087800264 -39.728702545 -2.22939992 -9.328401566 26.828199387 -0.023400031 -12.609103203 -18.228200912 -0.080100007 -1.82529974 5.022999763 -8.367899895 -1.073299766 9.177700043 -0.489700079 -2.315700531 3.449500322 4.420000553 -1.273999929 -1.232199788 -15.131702423 -10.118000031 4.745399952 9.984201431 -16.415800095 18.362602234 4.660698891 -8.709402084 6.903998852 0.0 -0.0 0.0 -71.434013367 -9.83259964 10.301603317 21.870502472 -32.830406189 -6.515503407 0.0 0.0 -7.359800339 20.720701218 -4.853399754 -1.83310008 -7.125 0.0 0.0 -4.451600552 24.792598724 2.180900574 0.0 -0.0 0.0 29.883201599 18.519304276 -19.724306107 -58.120609283 55.787994385 -32.781993866 0.0 -0.0 10.343000412 -38.797393799 -18.866197586 14.572294235 7.125 -0.0 0.0 -11.2164011 -53.30739975 2.314800978 
-0.12539959 17.297899246 -0.066900253 166.734008789 -70.357574463 -163.759017944 0.0 -0.0 0.0 -23.176303864 9.888401985 -5.221400261 1.559500217 7.881101131 22.353500366 0.011299996 -20.131401062 -14.263401031 0.498600036 4.526699543 12.56349659 0.0 -0.0 0.0 18.199100494 2.973104477 -38.587806702 -2.061100006 -8.992199898 25.770902634 -0.233299315 -14.093299866 -22.449899673 -0.16930005 -2.650800228 7.308101177 -8.862700462 -1.103200316 9.498298645 -0.465200037 -2.435400486 3.590399504 4.742400169 -1.347200155 -1.220000386 -15.161399841 -10.371602058 4.541000366 9.822800636 -16.688901901 18.30629921 4.569900036 -8.833999634 6.949000835 0.0 -0.0 0.0 -71.418006897 -10.1352005 10.570903778 21.893299103 -32.856193542 -6.527801037 0.0 0.0 -7.043700218 20.391201019 -4.975399971 -1.846500039 -7.125 0.0 0.0 -4.69630003 24.673999786 2.314400196 0.0 -0.0 0.0 29.151691437 18.520298004 -20.277399063 -57.310684204 55.549701691 -32.113193512 0.0 -0.0 10.763299942 -39.025203705 -18.954006195 14.749105453 7.125 -0.0 0.0 -11.472900391 -53.464008331 2.413000822 
-0.239500046 17.277200699 -0.074100494 167.147003174 -69.740608215 -163.186004639 0.0 -0.0 0.0 -23.660104752 9.078201294 -5.474700451 1.509800076 7.76030159 21.988298416 0.232300147 -18.859300613 -15.225103378 0.459500134 4.348499775 12.059201241 0.0 -0.0 0.0 17.970602036 4.414000988 -39.452098846 -1.931799889 -8.722500801 24.930995941 -0.376799732 -14.88079834 -24.706298828 -0.157700002 -2.55850029 7.051999569 -8.104201317 -1.053100348 8.733300209 -0.554400027 -2.221699953 3.336800575 4.182999611 -1.222100019 -1.131900072 -15.791599274 -10.758499146 4.248898506 10.369196892 -17.319093704 18.515800476 4.743400097 -9.131601334 7.259800434 0.0 -0.0 0.0 -71.397605896 -10.502399445 11.003501892 21.898199081 -32.861698151 -6.530499935 0.0 0.0 -7.196002007 20.327798843 -5.241999626 -1.938499689 -7.125 0.0 0.0 -4.739500999 24.393106461 2.366799831 0.0 -0.0 0.0 28.528594971 18.335897446 -20.920700073 -56.581798553 55.328090668 -31.513000488 0.0 -0.0 11.001299858 -38.708099365 -19.402000427 14.907198906 7.125 -0.0 0.0 -11.130395889 -53.927089691 2.466097116 
-0.366700172 17.243200302 -0.148400307 166.378997803 -69.840324402 -162.526992798 0.0 -0.0 0.0 -23.666503906 9.531601906 -4.826501369 1.467699766 7.655899525 21.673700333 0.225300223 -19.174900055 -15.363204002 0.444900036 4.279500961 11.864500999 0.0 -0.0 0.0 17.68629837 4.887802601 -39.207012177 -1.848500252 -8.543100357 24.376203537 -0.626600146 -15.352498055 -27.252000809 -0.149899989 -2.494900227 6.875599861 -8.376099586 -1.114599705 8.859498024 -0.512700021 -2.338800192 3.339100122 4.39330101 -1.281600118 -1.169300079 -15.405096054 -10.709199905 4.138999462 10.116699219 -17.189603806 18.526901245 4.613901138 -9.055701256 7.205700397 0.0 -0.0 0.0 -71.486709595 -10.615700722 11.253100395 21.952905655 -32.923805237 -6.560204983 0.0 0.0 -7.090499878 20.179197311 -5.242500305 -1.923300147 -7.125 0.0 0.0 -4.850399494 24.398008347 2.421998978 0.0 -0.0 0.0 27.967790604 18.275695801 -21.536298752 -55.680500031 55.044498444 -30.773004532 0.0 -0.0 11.570300102 -37.697692871 -19.804601669 14.673099518 7.125 -0.0 0.0 -9.998299599 -54.173416138 2.271498442 
-0.492799759 17.206399918 -0.212500572 164.569015503 -69.25630188 -160.304016113 0.0 -0.0 0.0 -24.470399857 10.540598869 -5.131498814 1.424499989 7.54749918 21.347797394 0.194000289 -19.613401413 -15.388901711 0.393000156 4.025500298 11.148302078 0.0 -0.0 0.0 16.749401093 6.040198326 -39.582691193 -1.796399951 -8.428499222 24.023303986 -0.750699341 -16.313302994 -29.196500778 -0.185700014 -2.775400162 7.653998852 -9.043301582 -1.1177001 8.286298752 -0.702699959 -2.345700026 3.150899649 4.551100254 -1.285799861 -1.02549994 -14.387000084 -10.814500809 4.273300648 9.099201202 -17.089103699 18.083402634 4.169100761 -8.993300438 6.847000599 0.0 -0.0 0.0 -71.267501831 -10.432800293 11.950097084 22.117002487 -33.10900116 -6.649598598 0.0 0.0 -7.408099174 20.09929657 -5.134399891 -1.875699759 -7.125 0.0 0.0 -4.911699772 24.515403748 2.439399719 0.0 -0.0 0.0 27.533098221 18.373195648 -22.086597443 -54.784111023 54.751789093 -30.039613724 0.0 -0.0 12.286201477 -37.351089478 -19.718496323 14.440295219 7.125 -0.0 0.0 -9.611502647 -53.99331665 2.140003204 
-0.626199722 17.164600372 -0.296099663 160.878997803 -69.204299927 -157.591995239 0.0 -0.0 0.0 -25.353803635 11.569203377 -3.811001539 1.37710011 7.425901413 20.98340416 0.129200473 -20.197896957 -15.255599976 0.355900109 3.832500219 10.605900764 0.0 -0.0 0.0 15.581396103 6.037900448 -38.783802032 -1.778699994 -8.389100075 23.902294159 -0.760499537 -17.754299164 -30.831003189 -0.280100018 -3.403800249 9.405099869 -10.318499565 -1.090999842 9.031500816 -0.9654001 -2.52390027 3.354200125 5.025599003 -1.394799829 -1.148799777 -15.037998199 -10.861499786 4.085599422 9.701400757 -17.314599991 18.500595093 4.409599304 -9.110697746 7.154698372 0.0 -0.0 0.0 -71.000793457 -10.360002518 13.074099541 22.279003143 -33.290901184 -6.738300323 0.0 0.0 -7.939000607 20.046201706 -5.191300392 -1.891000628 -7.125 0.0 0.0 -4.950400352 24.457004547 2.465499401 0.0 -0.0 0.0 27.010597229 18.231506348 -22.704206467 -54.165210724 54.543205261 -29.53481102 0.0 -0.0 12.638799667 -37.046302795 -19.552501678 14.177202225 7.125 -0.0 0.0 -9.27579689 -53.729286194 2.004196644 
-0.754699707 17.150699615 -0.375100136 160.956008911 -69.283081055 -158.01600647 0.0 -0.0 0.0 -24.930906296 11.880501747 -2.590301752 1.313500285 7.259301662 20.486000061 0.124100111 -20.257701874 -15.255002022 0.358899981 3.848499537 10.650800705 0.0 -0.0 0.0 15.761100769 6.564699173 -38.148792267 -1.799900055 -8.436200142 24.046998978 -1.059099555 -17.815002441 -32.773197174 -0.659999967 -5.195899963 14.468298912 -10.332598686 -1.084299564 9.354599953 -0.777199805 -2.548699617 3.458099365 5.244100094 -1.41110003 -1.203799844 -16.11349678 -10.835198402 3.856399059 10.4477005 -17.465501785 18.954500198 4.765100956 -9.209401131 7.529599667 0.0 -0.0 0.0 -71.118392944 -10.281099319 14.036495209 22.40940094 -33.436595917 -6.809998989 0.0 0.0 -8.219599724 20.090597153 -5.307700157 -1.937799454 -7.125 0.0 0.0 -4.915400028 24.332000732 2.462199926 0.0 -0.0 0.0 26.379394531 18.229797363 -23.381198883 -53.659606934 54.368900299 -29.123403549 0.0 -0.0 13.057200432 -35.684398651 -20.079296112 13.850597382 7.125 -0.0 0.0 -7.747400761 -54.043201447 1.730101466 
